# xmcd
#
# Track frame offsets: 
#        150
#        22875
#        37532
#        58377
#        74760
#        95622
#        115050
#        136617
#        150677
#        166550
#        185107
#        209055
#
# Disc length: 2994 seconds
#
# Revision: 1
# Processed by: cddbd v1.5.2PL0 Copyright (c) Steve Scherf et al.
# Submitted via: ExactAudioCopyFreeDBPlugin 1.0
#
DISCID=a10bb00c
DTITLE=柳ジョージ&レイニーウッド - YOKOHAMA
DYEAR=1979
DGENRE=Rock
TTITLE0=PRISONER
TTITLE1=WHAT DO YOU WANT
TTITLE2=COPENHAGEN PARK
TTITLE3=SAD CLOWN
TTITLE4=PUB
TTITLE5=WEEPING IN THE RAIN
TTITLE6=MINATO-TEI
TTITLE7=GROOVY GIRL
TTITLE8=HEY DARLING
TTITLE9=CHINESE QUEEN
TTITLE10=I REMEMBER THE NIGHT
TTITLE11=AMERICA ACROSS THE FENCE
EXTD=YEAR: 1991
EXTT0=
EXTT1=
EXTT2=
EXTT3=
EXTT4=
EXTT5=
EXTT6=
EXTT7=
EXTT8=
EXTT9=
EXTT10=
EXTT11=
PLAYORDER=
